<svg xmlns="http://www.w3.org/2000/svg" xmlns:xlink="http://www.w3.org/1999/xlink" viewBox="0,0,256,256" width="128px" height="128px"><g fill="#e3e3e3" fill-rule="nonzero" stroke="none" stroke-width="1" stroke-linecap="butt" stroke-linejoin="miter" stroke-miterlimit="10" stroke-dasharray="" stroke-dashoffset="0" font-family="none" font-weight="none" font-size="none" text-anchor="none" style="mix-blend-mode: normal"><g transform="scale(4,4)"><path d="M3,8c-1.65234,0 -3,1.34766 -3,3v42c0,1.65234 1.34766,3 3,3h58c1.65234,0 3,-1.34766 3,-3v-42c0,-1.65234 -1.34766,-3 -3,-3zM3,10h58c0.55078,0 1,0.44922 1,1v42c0,0.55078 -0.44922,1 -1,1h-58c-0.55078,0 -1,-0.44922 -1,-1v-42c0,-0.55078 0.44922,-1 1,-1zM17,14c-0.60156,0 -1,0.44531 -1,1v2c0,0.55078 0.39844,1 1,1c0.60156,0 1,-0.44531 1,-1v-2c0,-0.55469 -0.39844,-1 -1,-1zM11.89453,15.33594c-0.13281,0.01563 -0.26562,0.0625 -0.39453,0.13672c-0.51953,0.30078 -0.64062,0.88672 -0.36328,1.36719l1,1.73047c0.18359,0.32422 0.51953,0.50391 0.86328,0.50391c0.13281,0.01953 0.32813,-0.03516 0.5,-0.13672c0.51953,-0.30078 0.64063,-0.88672 0.36328,-1.36719l-1,-1.73047c-0.20312,-0.35937 -0.57422,-0.55469 -0.96875,-0.50391zM22.10938,15.33984c-0.39453,-0.05469 -0.76562,0.14063 -0.97266,0.5l-1,1.73438c-0.27734,0.47656 -0.15625,1.0625 0.36328,1.36328c0.17578,0.10156 0.37109,0.16016 0.5,0.13672c0.34766,0 0.68359,-0.18359 0.86719,-0.5l1,-1.73437c0.27734,-0.48047 0.15625,-1.06641 -0.36719,-1.36719c-0.12891,-0.07422 -0.26172,-0.11719 -0.39062,-0.13281zM8.46484,19c-0.38281,-0.05469 -0.76562,0.11328 -0.99219,0.5c-0.30078,0.51953 -0.10937,1.08984 0.36719,1.36719l1.73047,1c0.16016,0.09375 0.30469,0.17578 0.48438,0.16406c0.35938,-0.02344 0.68359,-0.18359 0.88281,-0.53125c0.30078,-0.51953 0.11328,-1.08984 -0.36719,-1.36328l-1.73047,-1c-0.12109,-0.07031 -0.24609,-0.11719 -0.375,-0.13672zM25.53125,19c-0.125,0.01953 -0.25,0.06641 -0.37109,0.13672l-1.73437,1c-0.47656,0.27344 -0.66406,0.84375 -0.36328,1.36328c0.19922,0.34766 0.52344,0.50781 0.88281,0.53125c0.17969,0.01172 0.32422,-0.07422 0.48047,-0.16797l1.73438,-1c0.48047,-0.27344 0.66406,-0.84375 0.36719,-1.36328c-0.22656,-0.39062 -0.61328,-0.55469 -0.99609,-0.5zM17.07422,20.00781c-2.75391,0 -4.99219,2.23828 -4.99219,4.99219c0,2.75391 2.23828,4.99219 4.99219,4.99219c2.75391,0 4.99219,-2.23828 4.99219,-4.99219c0,-2.75391 -2.23828,-4.99219 -4.99219,-4.99219zM17.07422,21.99219c1.66406,0 3.00781,1.34375 3.00781,3.00781c0,1.66406 -1.34375,3.00781 -3.00781,3.00781c-1.66406,0 -3.00781,-1.34375 -3.00781,-3.00781c0,-1.66406 1.34375,-3.00781 3.00781,-3.00781zM7,24c-0.55469,0 -1,0.39844 -1,1c0,0.60156 0.44531,1 1,1h2c0.55469,0 1,-0.39844 1,-1c0,-0.60156 -0.44531,-1 -1,-1zM25,24c-0.55469,0 -1,0.39844 -1,1c0,0.60156 0.44531,1 1,1h2c0.55469,0 1,-0.39844 1,-1c0,-0.60156 -0.44531,-1 -1,-1zM9.94531,28c-0.12891,0.01953 -0.25391,0.06641 -0.375,0.13672l-1.73047,1c-0.47656,0.27344 -0.66797,0.84375 -0.36719,1.36328c0.19922,0.34766 0.52344,0.50781 0.88281,0.53125c0.17969,0.01172 0.32422,-0.07422 0.48438,-0.16797l1.73047,-1c0.48047,-0.27344 0.66797,-0.84375 0.36719,-1.36328c-0.22656,-0.39062 -0.61328,-0.55469 -0.99219,-0.5zM24.05469,28c-0.38281,-0.05469 -0.76562,0.11328 -0.99219,0.5c-0.30078,0.51953 -0.11328,1.08984 0.36328,1.36719l1.73438,1c0.16016,0.09375 0.30469,0.17578 0.48047,0.16406c0.36328,-0.02344 0.68359,-0.18359 0.88672,-0.53125c0.29688,-0.51953 0.11328,-1.08984 -0.36719,-1.36328l-1.73437,-1c-0.11719,-0.07031 -0.24219,-0.11719 -0.37109,-0.13672zM13.10938,30.92578c-0.39453,-0.05078 -0.76953,0.14453 -0.97266,0.50391l-1,1.73047c-0.27734,0.48047 -0.15625,1.06641 0.36328,1.36719c0.17578,0.10156 0.37109,0.15625 0.5,0.13281c0.34766,0 0.68359,-0.17969 0.86719,-0.5l1,-1.73047c0.27734,-0.48047 0.15625,-1.06641 -0.36719,-1.36719c-0.12891,-0.07422 -0.26172,-0.12109 -0.39062,-0.13672zM20.89453,30.92578c-0.13281,0.01563 -0.26562,0.0625 -0.39453,0.13672c-0.51953,0.30078 -0.64062,0.88672 -0.36328,1.36328l1,1.73438c0.18359,0.32422 0.51953,0.5 0.86328,0.5c0.13281,0.02344 0.32813,-0.03516 0.5,-0.13281c0.51953,-0.30078 0.64063,-0.88672 0.36328,-1.36719l-1,-1.73437c-0.20312,-0.35547 -0.57422,-0.55078 -0.96875,-0.5zM17,32c-0.60156,0 -1,0.44531 -1,1v2c0,0.55469 0.39844,1 1,1c0.60156,0 1,-0.44531 1,-1v-2c0,-0.55469 -0.39844,-1 -1,-1zM48,32.85938c-0.77734,0 -1.55469,0.28125 -2.12109,0.84766l-6.38672,6.38672l-3.39453,-3.39453c-1.09766,-1.10156 -3.09766,-1.10156 -4.19531,0l-13.30469,13.30078h-5.55469c-0.625,0 -1.04297,0.39844 -1.04297,1c0,0.60156 0.52344,1 1.04297,1h45.9375c0.51953,0 1.04297,-0.39844 1.04297,-1c0,-0.60156 -0.52344,-1 -1.04297,-1h-26.56641l14.87891,-14.87891c0.37891,-0.37891 1.03516,-0.37891 1.41406,0l9.58594,9.58594c0.39063,0.39063 1.02344,0.39063 1.41406,0c0.39063,-0.39062 0.39063,-1.02344 0,-1.41406l-9.58594,-9.58594c-0.56641,-0.56641 -1.34375,-0.84766 -2.12109,-0.84766zM34,37.80078c0.25,0 0.5,0.09766 0.69922,0.29688l3.39453,3.39453l-8.50781,8.50781h-8.18359l11.89844,-11.90234c0.19922,-0.19922 0.44922,-0.29687 0.69922,-0.29687zM5,50c-0.60156,0 -1,0.39844 -1,1c0,0.60156 0.39844,1 1,1h4c0.60156,0 1,-0.39844 1,-1c0,-0.60156 -0.39844,-1 -1,-1z"></path></g></g></svg>